<svg xmlns="http://www.w3.org/2000/svg" xmlns:xlink="http://www.w3.org/1999/xlink" width="230" zoomAndPan="magnify" viewBox="0 0 172.5 30.000001" height="40" preserveAspectRatio="xMidYMid meet" version="1.0"><defs><g/><clipPath id="eb66e402ce"><path d="M 2.539062 0 L 169.476562 0 L 169.476562 29.03125 L 2.539062 29.03125 Z M 2.539062 0 " clip-rule="nonzero"/></clipPath><clipPath id="f90ad2c7a6"><path d="M 4.089844 3 L 83.167969 3 L 83.167969 27 L 4.089844 27 Z M 4.089844 3 " clip-rule="nonzero"/></clipPath></defs><g clip-path="url(#eb66e402ce)"><path fill="#ffffff" d="M 2.539062 0 L 169.476562 0 L 169.476562 29.03125 L 2.539062 29.03125 Z M 2.539062 0 " fill-opacity="1" fill-rule="nonzero"/><path fill="#ffffff" d="M 2.539062 0 L 169.476562 0 L 169.476562 29.03125 L 2.539062 29.03125 Z M 2.539062 0 " fill-opacity="1" fill-rule="nonzero"/></g><g clip-path="url(#f90ad2c7a6)"><path fill="#c12e2e" d="M 4.167969 26.863281 C 4.050781 26.859375 7.433594 25.714844 7.863281 25.4375 C 7.976562 25.265625 5.984375 23.1875 6.101562 23.1875 C 6.15625 23.191406 19.054688 25.359375 31.507812 23.117188 C 31.171875 22.863281 30.859375 22.597656 30.570312 22.3125 C 29.261719 21.039062 28.382812 19.484375 27.894531 17.835938 C 27.402344 16.179688 27.296875 14.429688 27.527344 12.765625 C 28.066406 8.902344 30.40625 5.34375 34.101562 3.777344 C 38.859375 1.757812 40.878906 5.863281 41.378906 7.144531 C 43.789062 4.648438 46.394531 3.851562 48.554688 4.253906 C 49.863281 4.496094 51.0625 5.136719 51.960938 6.054688 C 52.855469 6.96875 53.445312 8.15625 53.539062 9.496094 C 53.730469 12.246094 51.859375 15.714844 46.503906 19.191406 C 44.558594 20.453125 42.246094 21.511719 39.71875 22.394531 C 38.914062 22.308594 37.980469 22.164062 37 21.929688 C 41.167969 20.859375 45.019531 19.425781 47.980469 17.5 C 50.867188 15.625 51.847656 13.324219 51.707031 11.285156 C 51.613281 9.953125 51.027344 8.777344 50.140625 7.871094 C 49.253906 6.96875 48.0625 6.332031 46.753906 6.089844 C 44.6875 5.707031 42.546875 6.085938 41.40625 7.71875 C 41.179688 8.046875 40.625 8.625 40.175781 9.011719 C 39.875 9.265625 39.695312 9.371094 39.675781 9.316406 C 39.671875 9.300781 37.878906 3.265625 32.414062 5.585938 C 30.816406 6.261719 29.714844 8.433594 29.359375 11 C 29.128906 12.644531 29.238281 14.382812 29.726562 16.03125 C 30.214844 17.679688 31.089844 19.230469 32.386719 20.496094 C 32.726562 20.820312 33.089844 21.128906 33.484375 21.414062 C 33.484375 21.414062 36.332031 23.730469 41.03125 23.625 C 42.34375 23.636719 43.777344 23.511719 45.339844 23.230469 C 51.273438 22.152344 55.613281 20.375 59.234375 18.894531 C 67.0625 15.691406 73.15625 11.9375 83.089844 21.324219 C 83.152344 21.386719 79.398438 20.980469 79.105469 21.117188 C 79.105469 21.117188 79.738281 25.117188 79.679688 25.054688 C 69.78125 15.699219 65.3125 17.527344 57.539062 20.707031 C 53.902344 22.195312 49.542969 23.980469 43.578125 25.0625 C 39.203125 25.855469 35.820312 25.40625 33.308594 24.207031 C 19.835938 27.261719 4.230469 26.863281 4.167969 26.863281 " fill-opacity="1" fill-rule="nonzero"/></g><path fill="#231f20" d="M 77.238281 10.953125 C 77.238281 10.953125 74.816406 8.503906 74.441406 8.558594 C 74.0625 8.613281 72.152344 9.75 72.152344 9.75 C 72.152344 9.75 70.4375 7.566406 69.640625 7.605469 C 68.84375 7.644531 65.835938 9.425781 65.835938 9.425781 C 65.835938 9.425781 69.160156 8.546875 69.390625 8.679688 C 69.625 8.816406 71.878906 10.3125 71.878906 10.3125 L 74.132812 9.558594 Z M 77.238281 10.953125 " fill-opacity="1" fill-rule="evenodd"/><path fill="#231f20" d="M 65.042969 11.097656 C 65.042969 11.097656 63.121094 9.152344 62.820312 9.191406 C 62.519531 9.234375 61.003906 10.140625 61.003906 10.140625 C 61.003906 10.140625 59.640625 8.402344 59.003906 8.433594 C 58.371094 8.464844 55.980469 9.882812 55.980469 9.882812 C 55.980469 9.882812 58.621094 9.183594 58.808594 9.289062 C 58.992188 9.394531 60.785156 10.585938 60.785156 10.585938 L 62.578125 9.984375 Z M 65.042969 11.097656 " fill-opacity="1" fill-rule="evenodd"/><path fill="#231f20" d="M 66.015625 7.773438 C 66.015625 7.773438 64.835938 6.578125 64.652344 6.605469 C 64.46875 6.628906 63.539062 7.183594 63.539062 7.183594 C 63.539062 7.183594 62.703125 6.121094 62.3125 6.140625 C 61.921875 6.15625 60.457031 7.027344 60.457031 7.027344 C 60.457031 7.027344 62.078125 6.597656 62.191406 6.664062 C 62.304688 6.730469 63.402344 7.460938 63.402344 7.460938 L 64.503906 7.089844 Z M 66.015625 7.773438 " fill-opacity="1" fill-rule="evenodd"/><g fill="#231f20" fill-opacity="1"><g transform="translate(79.761928, 17.183944)"><g><path d="M 12.765625 0.15625 L 10.859375 -0.296875 L 10.015625 -1.125 C 9.515625 -0.75 8.96875 -0.441406 8.375 -0.203125 C 7.78125 0.0351562 7.148438 0.15625 6.484375 0.15625 C 5.671875 0.15625 4.90625 -0.00390625 4.1875 -0.328125 C 3.46875 -0.660156 2.84375 -1.101562 2.3125 -1.65625 C 1.78125 -2.207031 1.359375 -2.851562 1.046875 -3.59375 C 0.734375 -4.34375 0.578125 -5.132812 0.578125 -5.96875 C 0.578125 -6.800781 0.734375 -7.585938 1.046875 -8.328125 C 1.359375 -9.078125 1.78125 -9.726562 2.3125 -10.28125 C 2.84375 -10.84375 3.46875 -11.285156 4.1875 -11.609375 C 4.90625 -11.929688 5.671875 -12.09375 6.484375 -12.09375 C 7.285156 -12.09375 8.046875 -11.929688 8.765625 -11.609375 C 9.484375 -11.285156 10.109375 -10.84375 10.640625 -10.28125 C 11.179688 -9.726562 11.609375 -9.078125 11.921875 -8.328125 C 12.234375 -7.585938 12.390625 -6.800781 12.390625 -5.96875 C 12.390625 -5.257812 12.273438 -4.59375 12.046875 -3.96875 C 11.828125 -3.351562 11.523438 -2.789062 11.140625 -2.28125 L 11.796875 -1.609375 L 13.171875 -1.234375 Z M 9.90625 -3.515625 C 10.132812 -3.878906 10.304688 -4.265625 10.421875 -4.671875 C 10.546875 -5.078125 10.609375 -5.507812 10.609375 -5.96875 C 10.609375 -6.59375 10.5 -7.171875 10.28125 -7.703125 C 10.0625 -8.242188 9.765625 -8.71875 9.390625 -9.125 C 9.015625 -9.53125 8.578125 -9.847656 8.078125 -10.078125 C 7.585938 -10.304688 7.054688 -10.421875 6.484375 -10.421875 C 5.910156 -10.421875 5.375 -10.304688 4.875 -10.078125 C 4.375 -9.847656 3.9375 -9.53125 3.5625 -9.125 C 3.195312 -8.71875 2.90625 -8.242188 2.6875 -7.703125 C 2.476562 -7.171875 2.375 -6.59375 2.375 -5.96875 C 2.375 -5.351562 2.476562 -4.769531 2.6875 -4.21875 C 2.90625 -3.675781 3.195312 -3.195312 3.5625 -2.78125 C 3.9375 -2.375 4.375 -2.050781 4.875 -1.8125 C 5.375 -1.582031 5.910156 -1.46875 6.484375 -1.46875 C 6.921875 -1.46875 7.335938 -1.539062 7.734375 -1.6875 C 8.128906 -1.84375 8.492188 -2.050781 8.828125 -2.3125 L 7.28125 -3.859375 L 8.453125 -5.015625 Z M 9.90625 -3.515625 "/></g></g></g><g fill="#231f20" fill-opacity="1"><g transform="translate(93.129686, 17.183944)"><g><path d="M 6.390625 -0.71875 C 6.109375 -0.46875 5.78125 -0.253906 5.40625 -0.078125 C 5.03125 0.0859375 4.613281 0.171875 4.15625 0.171875 C 3.863281 0.171875 3.53125 0.128906 3.15625 0.046875 C 2.789062 -0.0351562 2.445312 -0.203125 2.125 -0.453125 C 1.8125 -0.703125 1.546875 -1.039062 1.328125 -1.46875 C 1.109375 -1.90625 1 -2.46875 1 -3.15625 L 1 -8.0625 L 2.546875 -8.0625 L 2.546875 -3.15625 C 2.546875 -2.8125 2.597656 -2.519531 2.703125 -2.28125 C 2.804688 -2.039062 2.941406 -1.847656 3.109375 -1.703125 C 3.285156 -1.554688 3.488281 -1.445312 3.71875 -1.375 C 3.945312 -1.3125 4.175781 -1.28125 4.40625 -1.28125 C 4.582031 -1.28125 4.785156 -1.3125 5.015625 -1.375 C 5.253906 -1.445312 5.472656 -1.554688 5.671875 -1.703125 C 5.867188 -1.859375 6.035156 -2.050781 6.171875 -2.28125 C 6.316406 -2.519531 6.390625 -2.804688 6.390625 -3.140625 L 6.390625 -8.0625 L 8.03125 -8.0625 L 8.03125 0 L 6.734375 0 Z M 6.390625 -0.71875 "/></g></g></g><g fill="#231f20" fill-opacity="1"><g transform="translate(102.13693, 17.183944)"><g><path d="M 2.640625 0 L 1.015625 0 L 1.015625 -8.0625 L 2.625 -8.0625 Z M 1.8125 -9.8125 C 1.519531 -9.8125 1.273438 -9.914062 1.078125 -10.125 C 0.878906 -10.332031 0.78125 -10.582031 0.78125 -10.875 C 0.78125 -11.164062 0.878906 -11.410156 1.078125 -11.609375 C 1.273438 -11.816406 1.519531 -11.921875 1.8125 -11.921875 C 2.101562 -11.921875 2.347656 -11.816406 2.546875 -11.609375 C 2.753906 -11.410156 2.859375 -11.164062 2.859375 -10.875 C 2.859375 -10.582031 2.753906 -10.332031 2.546875 -10.125 C 2.347656 -9.914062 2.101562 -9.8125 1.8125 -9.8125 Z M 1.8125 -9.8125 "/></g></g></g><g fill="#231f20" fill-opacity="1"><g transform="translate(105.672482, 17.183944)"><g><path d="M 4.640625 0.203125 C 4.078125 0.203125 3.550781 0.09375 3.0625 -0.125 C 2.582031 -0.34375 2.160156 -0.640625 1.796875 -1.015625 C 1.429688 -1.398438 1.140625 -1.847656 0.921875 -2.359375 C 0.710938 -2.878906 0.609375 -3.429688 0.609375 -4.015625 C 0.609375 -4.597656 0.710938 -5.144531 0.921875 -5.65625 C 1.140625 -6.175781 1.429688 -6.628906 1.796875 -7.015625 C 2.160156 -7.398438 2.582031 -7.703125 3.0625 -7.921875 C 3.550781 -8.140625 4.078125 -8.25 4.640625 -8.25 C 5.296875 -8.25 5.894531 -8.101562 6.4375 -7.8125 C 6.988281 -7.519531 7.453125 -7.117188 7.828125 -6.609375 L 6.6875 -5.71875 C 6.457031 -6.039062 6.171875 -6.296875 5.828125 -6.484375 C 5.484375 -6.671875 5.117188 -6.765625 4.734375 -6.765625 C 4.390625 -6.765625 4.066406 -6.691406 3.765625 -6.546875 C 3.460938 -6.410156 3.195312 -6.21875 2.96875 -5.96875 C 2.75 -5.726562 2.570312 -5.4375 2.4375 -5.09375 C 2.3125 -4.757812 2.25 -4.398438 2.25 -4.015625 C 2.25 -3.640625 2.3125 -3.28125 2.4375 -2.9375 C 2.570312 -2.601562 2.75 -2.3125 2.96875 -2.0625 C 3.195312 -1.8125 3.460938 -1.613281 3.765625 -1.46875 C 4.066406 -1.320312 4.390625 -1.25 4.734375 -1.25 C 5.171875 -1.25 5.566406 -1.363281 5.921875 -1.59375 C 6.285156 -1.832031 6.578125 -2.148438 6.796875 -2.546875 L 7.90625 -1.5625 C 7.550781 -1.019531 7.085938 -0.585938 6.515625 -0.265625 C 5.941406 0.046875 5.316406 0.203125 4.640625 0.203125 Z M 4.640625 0.203125 "/></g></g></g><g fill="#231f20" fill-opacity="1"><g transform="translate(114.225154, 17.183944)"><g><path d="M 2.65625 0 L 1.03125 0 L 1.03125 -12.28125 L 2.65625 -12.28125 L 2.65625 -4.75 L 5.828125 -8.0625 L 7.84375 -8.0625 L 4.75 -4.8125 L 8.078125 0 L 6.21875 0 L 3.6875 -3.703125 L 2.65625 -2.625 Z M 2.65625 0 "/></g></g></g><g fill="#231f20" fill-opacity="1"><g transform="translate(122.643137, 17.183944)"><g><path d="M 11.109375 -11.9375 L 12.875 -11.9375 L 12.875 0 L 11.125 0 L 11.125 -9.15625 L 7.640625 -4.359375 L 6.28125 -4.359375 L 2.78125 -9.15625 L 2.78125 0 L 1.015625 0 L 1.015625 -11.9375 L 2.78125 -11.9375 L 6.953125 -6.1875 Z M 11.109375 -11.9375 "/></g></g></g><g fill="#231f20" fill-opacity="1"><g transform="translate(136.532811, 17.183944)"><g><path d="M 8.578125 -8.0625 L 8.578125 0 L 7.203125 0 L 6.953125 -0.921875 C 6.671875 -0.554688 6.3125 -0.273438 5.875 -0.078125 C 5.4375 0.109375 4.992188 0.203125 4.546875 0.203125 C 3.984375 0.203125 3.457031 0.09375 2.96875 -0.125 C 2.476562 -0.34375 2.050781 -0.640625 1.6875 -1.015625 C 1.320312 -1.398438 1.03125 -1.847656 0.8125 -2.359375 C 0.601562 -2.878906 0.5 -3.429688 0.5 -4.015625 C 0.5 -4.597656 0.601562 -5.144531 0.8125 -5.65625 C 1.03125 -6.175781 1.320312 -6.628906 1.6875 -7.015625 C 2.050781 -7.398438 2.476562 -7.703125 2.96875 -7.921875 C 3.457031 -8.140625 3.984375 -8.25 4.546875 -8.25 C 4.992188 -8.25 5.425781 -8.160156 5.84375 -7.984375 C 6.257812 -7.804688 6.628906 -7.535156 6.953125 -7.171875 L 7.203125 -8.0625 Z M 4.546875 -1.25 C 4.867188 -1.25 5.175781 -1.320312 5.46875 -1.46875 C 5.757812 -1.613281 6.007812 -1.8125 6.21875 -2.0625 C 6.4375 -2.3125 6.609375 -2.601562 6.734375 -2.9375 C 6.859375 -3.28125 6.921875 -3.640625 6.921875 -4.015625 C 6.921875 -4.398438 6.859375 -4.757812 6.734375 -5.09375 C 6.609375 -5.4375 6.4375 -5.734375 6.21875 -5.984375 C 6.007812 -6.234375 5.757812 -6.429688 5.46875 -6.578125 C 5.175781 -6.722656 4.867188 -6.796875 4.546875 -6.796875 C 4.222656 -6.796875 3.914062 -6.722656 3.625 -6.578125 C 3.332031 -6.429688 3.078125 -6.234375 2.859375 -5.984375 C 2.648438 -5.734375 2.484375 -5.4375 2.359375 -5.09375 C 2.234375 -4.757812 2.171875 -4.398438 2.171875 -4.015625 C 2.171875 -3.640625 2.234375 -3.28125 2.359375 -2.9375 C 2.484375 -2.601562 2.648438 -2.3125 2.859375 -2.0625 C 3.078125 -1.8125 3.332031 -1.613281 3.625 -1.46875 C 3.914062 -1.320312 4.222656 -1.25 4.546875 -1.25 Z M 4.546875 -1.25 "/></g></g></g><g fill="#231f20" fill-opacity="1"><g transform="translate(145.843101, 17.183944)"><g><path d="M 5.3125 -0.015625 C 4.851562 0.140625 4.398438 0.234375 3.953125 0.265625 C 3.503906 0.296875 3.097656 0.226562 2.734375 0.0625 C 2.378906 -0.09375 2.085938 -0.375 1.859375 -0.78125 C 1.640625 -1.1875 1.53125 -1.757812 1.53125 -2.5 L 1.53125 -6.59375 L 0.359375 -6.59375 L 0.359375 -7.71875 L 1.53125 -8.0625 L 1.53125 -10.21875 L 3.15625 -10.21875 L 3.15625 -8.0625 L 5.34375 -8.0625 L 5.34375 -6.59375 L 3.15625 -6.59375 L 3.15625 -2.25 C 3.15625 -1.976562 3.1875 -1.765625 3.25 -1.609375 C 3.3125 -1.453125 3.414062 -1.332031 3.5625 -1.25 C 3.707031 -1.175781 3.898438 -1.140625 4.140625 -1.140625 C 4.378906 -1.140625 4.664062 -1.164062 5 -1.21875 Z M 5.3125 -0.015625 "/></g></g></g><g fill="#231f20" fill-opacity="1"><g transform="translate(151.601001, 17.183944)"><g><path d="M 4.640625 0.203125 C 4.078125 0.203125 3.550781 0.09375 3.0625 -0.125 C 2.582031 -0.34375 2.160156 -0.640625 1.796875 -1.015625 C 1.429688 -1.398438 1.140625 -1.847656 0.921875 -2.359375 C 0.710938 -2.878906 0.609375 -3.429688 0.609375 -4.015625 C 0.609375 -4.597656 0.710938 -5.144531 0.921875 -5.65625 C 1.140625 -6.175781 1.429688 -6.628906 1.796875 -7.015625 C 2.160156 -7.398438 2.582031 -7.703125 3.0625 -7.921875 C 3.550781 -8.140625 4.078125 -8.25 4.640625 -8.25 C 5.296875 -8.25 5.894531 -8.101562 6.4375 -7.8125 C 6.988281 -7.519531 7.453125 -7.117188 7.828125 -6.609375 L 6.6875 -5.71875 C 6.457031 -6.039062 6.171875 -6.296875 5.828125 -6.484375 C 5.484375 -6.671875 5.117188 -6.765625 4.734375 -6.765625 C 4.390625 -6.765625 4.066406 -6.691406 3.765625 -6.546875 C 3.460938 -6.410156 3.195312 -6.21875 2.96875 -5.96875 C 2.75 -5.726562 2.570312 -5.4375 2.4375 -5.09375 C 2.3125 -4.757812 2.25 -4.398438 2.25 -4.015625 C 2.25 -3.640625 2.3125 -3.28125 2.4375 -2.9375 C 2.570312 -2.601562 2.75 -2.3125 2.96875 -2.0625 C 3.195312 -1.8125 3.460938 -1.613281 3.765625 -1.46875 C 4.066406 -1.320312 4.390625 -1.25 4.734375 -1.25 C 5.171875 -1.25 5.566406 -1.363281 5.921875 -1.59375 C 6.285156 -1.832031 6.578125 -2.148438 6.796875 -2.546875 L 7.90625 -1.5625 C 7.550781 -1.019531 7.085938 -0.585938 6.515625 -0.265625 C 5.941406 0.046875 5.316406 0.203125 4.640625 0.203125 Z M 4.640625 0.203125 "/></g></g></g><g fill="#231f20" fill-opacity="1"><g transform="translate(160.153673, 17.183944)"><g><path d="M 2.578125 0 L 0.9375 0 L 0.9375 -12.28125 L 2.578125 -12.28125 L 2.578125 -7.3125 C 2.878906 -7.65625 3.191406 -7.894531 3.515625 -8.03125 C 3.847656 -8.175781 4.234375 -8.25 4.671875 -8.25 C 5.234375 -8.25 5.734375 -8.140625 6.171875 -7.921875 C 6.617188 -7.703125 7 -7.398438 7.3125 -7.015625 C 7.632812 -6.628906 7.875 -6.175781 8.03125 -5.65625 C 8.195312 -5.144531 8.28125 -4.597656 8.28125 -4.015625 L 8.28125 0 L 6.625 0 L 6.625 -4.015625 C 6.625 -4.398438 6.570312 -4.757812 6.46875 -5.09375 C 6.363281 -5.4375 6.21875 -5.726562 6.03125 -5.96875 C 5.84375 -6.21875 5.628906 -6.410156 5.390625 -6.546875 C 5.148438 -6.691406 4.890625 -6.765625 4.609375 -6.765625 C 4.367188 -6.765625 4.128906 -6.71875 3.890625 -6.625 C 3.660156 -6.53125 3.445312 -6.375 3.25 -6.15625 C 3.0625 -5.945312 2.898438 -5.664062 2.765625 -5.3125 C 2.640625 -4.96875 2.578125 -4.550781 2.578125 -4.0625 Z M 2.578125 0 "/></g></g></g><g fill="#231f20" fill-opacity="1"><g transform="translate(103.808501, 23.726292)"><g><path d="M 0.734375 -2.59375 L 1.59375 -0.46875 L 2.4375 -2.59375 L 2.875 -2.59375 L 2.875 0 L 2.53125 0 L 2.53125 -1.015625 L 2.5625 -2.09375 L 1.71875 0 L 1.453125 0 L 0.609375 -2.09375 L 0.640625 -1.015625 L 0.640625 0 L 0.296875 0 L 0.296875 -2.59375 Z M 0.734375 -2.59375 "/></g></g></g><g fill="#231f20" fill-opacity="1"><g transform="translate(108.86205, 23.726292)"><g><path d="M 1.734375 -0.671875 L 0.640625 -0.671875 L 0.40625 0 L 0.046875 0 L 1.03125 -2.59375 L 1.34375 -2.59375 L 2.328125 0 L 1.984375 0 Z M 0.75 -0.953125 L 1.625 -0.953125 L 1.1875 -2.171875 Z M 0.75 -0.953125 "/></g></g></g><g fill="#231f20" fill-opacity="1"><g transform="translate(113.113805, 23.726292)"><g><path d="M 2.09375 -2.3125 L 1.25 -2.3125 L 1.25 0 L 0.921875 0 L 0.921875 -2.3125 L 0.09375 -2.3125 L 0.09375 -2.59375 L 2.09375 -2.59375 Z M 2.09375 -2.3125 "/></g></g></g><g fill="#231f20" fill-opacity="1"><g transform="translate(117.163337, 23.726292)"><g><path d="M 1.25 -1.046875 L 0.640625 -1.046875 L 0.640625 0 L 0.296875 0 L 0.296875 -2.59375 L 1.15625 -2.59375 C 1.445312 -2.59375 1.671875 -2.523438 1.828125 -2.390625 C 1.984375 -2.253906 2.0625 -2.0625 2.0625 -1.8125 C 2.0625 -1.644531 2.015625 -1.5 1.921875 -1.375 C 1.835938 -1.257812 1.71875 -1.175781 1.5625 -1.125 L 2.171875 -0.015625 L 2.171875 0 L 1.8125 0 Z M 0.640625 -1.328125 L 1.171875 -1.328125 C 1.335938 -1.328125 1.46875 -1.367188 1.5625 -1.453125 C 1.664062 -1.546875 1.71875 -1.664062 1.71875 -1.8125 C 1.71875 -1.96875 1.671875 -2.085938 1.578125 -2.171875 C 1.484375 -2.265625 1.347656 -2.3125 1.171875 -2.3125 L 0.640625 -2.3125 Z M 0.640625 -1.328125 "/></g></g></g><g fill="#231f20" fill-opacity="1"><g transform="translate(121.28205, 23.726292)"><g><path d="M 0.671875 0 L 0.328125 0 L 0.328125 -2.59375 L 0.671875 -2.59375 Z M 0.671875 0 "/></g></g></g><g fill="#231f20" fill-opacity="1"><g transform="translate(124.151952, 23.726292)"><g><path d="M 0.734375 -2.59375 L 1.59375 -0.46875 L 2.4375 -2.59375 L 2.875 -2.59375 L 2.875 0 L 2.53125 0 L 2.53125 -1.015625 L 2.5625 -2.09375 L 1.71875 0 L 1.453125 0 L 0.609375 -2.09375 L 0.640625 -1.015625 L 0.640625 0 L 0.296875 0 L 0.296875 -2.59375 Z M 0.734375 -2.59375 "/></g></g></g><g fill="#231f20" fill-opacity="1"><g transform="translate(129.205502, 23.726292)"><g><path d="M 2.296875 -1.203125 C 2.296875 -0.953125 2.25 -0.734375 2.15625 -0.546875 C 2.070312 -0.359375 1.953125 -0.210938 1.796875 -0.109375 C 1.640625 -0.015625 1.457031 0.03125 1.25 0.03125 C 1.050781 0.03125 0.867188 -0.015625 0.703125 -0.109375 C 0.546875 -0.210938 0.425781 -0.359375 0.34375 -0.546875 C 0.257812 -0.734375 0.210938 -0.945312 0.203125 -1.1875 L 0.203125 -1.375 C 0.203125 -1.625 0.242188 -1.84375 0.328125 -2.03125 C 0.421875 -2.21875 0.546875 -2.363281 0.703125 -2.46875 C 0.859375 -2.570312 1.039062 -2.625 1.25 -2.625 C 1.457031 -2.625 1.640625 -2.570312 1.796875 -2.46875 C 1.953125 -2.375 2.070312 -2.226562 2.15625 -2.03125 C 2.25 -1.84375 2.296875 -1.625 2.296875 -1.375 Z M 1.953125 -1.375 C 1.953125 -1.6875 1.890625 -1.921875 1.765625 -2.078125 C 1.640625 -2.242188 1.46875 -2.328125 1.25 -2.328125 C 1.03125 -2.328125 0.859375 -2.242188 0.734375 -2.078125 C 0.609375 -1.921875 0.546875 -1.695312 0.546875 -1.40625 L 0.546875 -1.203125 C 0.546875 -0.910156 0.609375 -0.675781 0.734375 -0.5 C 0.859375 -0.332031 1.03125 -0.25 1.25 -0.25 C 1.46875 -0.25 1.640625 -0.328125 1.765625 -0.484375 C 1.890625 -0.648438 1.953125 -0.882812 1.953125 -1.1875 Z M 1.953125 -1.375 "/></g></g></g><g fill="#231f20" fill-opacity="1"><g transform="translate(133.584977, 23.726292)"><g><path d="M 2.296875 0 L 1.953125 0 L 0.640625 -2 L 0.640625 0 L 0.296875 0 L 0.296875 -2.59375 L 0.640625 -2.59375 L 1.953125 -0.578125 L 1.953125 -2.59375 L 2.296875 -2.59375 Z M 2.296875 0 "/></g></g></g><g fill="#231f20" fill-opacity="1"><g transform="translate(138.056694, 23.726292)"><g><path d="M 1.09375 -1.28125 L 1.765625 -2.59375 L 2.15625 -2.59375 L 1.265625 -0.96875 L 1.265625 0 L 0.921875 0 L 0.921875 -0.96875 L 0.03125 -2.59375 L 0.421875 -2.59375 Z M 1.09375 -1.28125 "/></g></g></g></svg>